<?xml version="1.0" encoding="iso-8859-1"?>
<!-- Generator: Adobe Illustrator 19.0.0, SVG Export Plug-In . SVG Version: 6.00 Build 0)  -->
<svg version="1.1" id="Capa_1" xmlns="http://www.w3.org/2000/svg" xmlns:xlink="http://www.w3.org/1999/xlink" x="0px" y="0px"
	 viewBox="0 0 512 512" style="enable-background:new 0 0 512 512;" xml:space="preserve">
<path style="fill:#FC8063;" d="M488.827,179.004c-20.794,20.794-54.219,23.432-72.319,23.155
	c-7.357-0.113-13.277-6.032-13.389-13.389c-0.277-18.099,2.361-51.525,23.155-72.319s54.219-23.432,72.319-23.155
	c7.357,0.113,13.277,6.032,13.389,13.389C512.259,124.785,509.621,158.21,488.827,179.004z"/>
<path style="opacity:0.1;enable-background:new    ;" d="M511.982,106.686c-0.104-6.807-5.182-12.372-11.767-13.258
	c0.072,0.533,0.123,1.072,0.131,1.623c0.277,18.099-2.361,51.525-23.155,72.319s-54.219,23.432-72.318,23.154
	c-0.551-0.008-1.09-0.06-1.623-0.131c0.886,6.585,6.452,11.662,13.258,11.767c18.099,0.277,51.525-2.361,72.319-23.155
	C509.621,158.21,512.259,124.785,511.982,106.686z"/>
<path style="fill:#A16B4E;" d="M382.769,230.009c-1.919,0-3.839-0.732-5.303-2.197c-2.929-2.929-2.929-7.678,0-10.606l74.782-74.782
	c2.929-2.929,7.678-2.929,10.606,0c2.929,2.929,2.929,7.678,0,10.606l-74.782,74.782
	C386.607,229.277,384.688,230.009,382.769,230.009z"/>
<path style="fill:#FC8063;" d="M82.998,24.341c27.633,10.058,44.151,39.236,51.548,55.757c3.007,6.715,0.144,14.582-6.476,17.794
	c-16.286,7.9-47.695,19.636-75.328,9.578C25.108,97.412,8.591,68.233,1.194,51.712C-1.814,44.997,1.05,37.13,7.67,33.919
	C23.956,26.018,55.365,14.283,82.998,24.341z"/>
<path style="opacity:0.1;enable-background:new    ;" d="M134.547,80.098c-5.372-11.996-15.558-30.661-31.311-43.839
	c9.562,11.263,16.182,23.805,20.16,32.688c3.007,6.715,0.144,14.582-6.476,17.794c-16.286,7.901-47.695,19.635-75.328,9.578
	c-7.568-2.755-14.296-6.949-20.237-11.918c8.22,9.682,18.614,18.419,31.388,23.069c27.633,10.058,59.042-1.677,75.328-9.578
	C134.69,94.68,137.554,86.814,134.547,80.098z"/>
<path style="fill:#A16B4E;" d="M167.249,109.578c-0.852,0-1.718-0.146-2.564-0.454l-99.38-36.171
	c-3.893-1.417-5.899-5.721-4.483-9.613s5.72-5.899,9.613-4.483l99.379,36.171c3.892,1.417,5.899,5.721,4.483,9.613
	C173.189,107.687,170.312,109.578,167.249,109.578z"/>
<path style="fill:#FC8063;" d="M320.586,377.987c20.794,20.794,23.432,54.219,23.155,72.319
	c-0.113,7.357-6.032,13.277-13.389,13.389c-18.099,0.277-51.525-2.361-72.318-23.155c-20.794-20.794-23.432-54.219-23.155-72.318
	c0.113-7.357,6.032-13.277,13.39-13.39C266.367,354.556,299.793,357.194,320.586,377.987z"/>
<path style="opacity:0.1;enable-background:new    ;" d="M320.586,377.988c-2.282-2.282-4.722-4.333-7.271-6.197
	c15.129,20.68,17.204,48.934,16.957,65.047c-0.113,7.357-6.032,13.277-13.39,13.389c-16.113,0.247-44.367-1.829-65.047-16.957
	c1.865,2.549,3.915,4.99,6.197,7.271c20.794,20.794,54.219,23.432,72.318,23.155c7.357-0.113,13.277-6.032,13.389-13.389
	C344.018,432.207,341.38,398.781,320.586,377.988z"/>
<path style="fill:#A16B4E;" d="M364.091,491.546c-1.919,0-3.839-0.732-5.303-2.197l-74.782-74.781
	c-2.929-2.929-2.929-7.678,0-10.607s7.678-2.929,10.607,0l74.782,74.781c2.929,2.929,2.929,7.678,0,10.606
	C367.93,490.813,366.011,491.546,364.091,491.546z"/>
<g>
	<path style="fill:#DBDCDD;" d="M258.117,193.931H20.118c-4.142,0-7.5-3.358-7.5-7.5s3.358-7.5,7.5-7.5h237.999
		c31.329,0,56.817-25.488,56.817-56.817s-25.488-56.817-56.817-56.817c-4.142,0-7.5-3.358-7.5-7.5s3.358-7.5,7.5-7.5
		c39.6,0,71.817,32.217,71.817,71.817S297.717,193.931,258.117,193.931z"/>
	<path style="fill:#DBDCDD;" d="M312.795,255.015H52.315c-4.142,0-7.5-3.358-7.5-7.5s3.358-7.5,7.5-7.5h260.479
		c4.142,0,7.5,3.358,7.5,7.5C320.295,251.657,316.937,255.015,312.795,255.015z"/>
	<path style="fill:#DBDCDD;" d="M412.42,429.638c-4.142,0-7.5-3.358-7.5-7.5s3.358-7.5,7.5-7.5c27.167,0,49.27-22.102,49.27-49.27
		s-22.102-49.27-49.27-49.27H219.298c-4.142,0-7.5-3.358-7.5-7.5s3.358-7.5,7.5-7.5H412.42c35.438,0,64.269,28.831,64.269,64.27
		C476.69,400.807,447.859,429.638,412.42,429.638z"/>
	<path style="fill:#DBDCDD;" d="M141.47,316.099H25.779c-4.142,0-7.5-3.358-7.5-7.5s3.358-7.5,7.5-7.5h115.69
		c4.142,0,7.5,3.358,7.5,7.5C148.97,312.741,145.612,316.099,141.47,316.099z"/>
</g>
<g>
</g>
<g>
</g>
<g>
</g>
<g>
</g>
<g>
</g>
<g>
</g>
<g>
</g>
<g>
</g>
<g>
</g>
<g>
</g>
<g>
</g>
<g>
</g>
<g>
</g>
<g>
</g>
<g>
</g>
</svg>
