<?xml version="1.0" encoding="iso-8859-1"?>
<!-- Generator: Adobe Illustrator 19.0.0, SVG Export Plug-In . SVG Version: 6.00 Build 0)  -->
<svg version="1.1" id="Layer_1" xmlns="http://www.w3.org/2000/svg" xmlns:xlink="http://www.w3.org/1999/xlink" x="0px" y="0px"
	 viewBox="0 0 512 512" style="enable-background:new 0 0 512 512;" xml:space="preserve">
<rect x="110.478" y="13.339" style="fill:#B8E6FF;" width="291.034" height="348.512"/>
<rect x="169.765" y="304.365" style="fill:#CCCCCC;" width="172.46" height="57.488"/>
<g>
	<polygon style="fill:#F2F2F2;" points="401.515,128.176 401.515,153.58 261.262,13.339 286.678,13.339 	"/>
	<polygon style="fill:#F2F2F2;" points="401.515,67.847 401.515,93.263 321.603,13.339 346.995,13.339 	"/>
	<polygon style="fill:#F2F2F2;" points="191.471,362.474 171.793,368.211 165.433,361.851 110.481,306.888 110.481,281.484 	"/>
</g>
<rect x="110.49" y="356.034" style="fill:#4D4D4D;" width="291.034" height="133.642"/>
<rect x="190.03" y="398.673" style="fill:#E09B2D;" width="131.941" height="57.488"/>
<rect x="199.612" y="408.255" style="fill:#F7B239;" width="112.777" height="38.325"/>
<path style="fill:#333333;" d="M503.017,498.661H8.983c-4.962,0-8.983-4.022-8.983-8.983c0-4.961,4.021-8.983,8.983-8.983h494.034
	c4.962,0,8.983,4.022,8.983,8.983C512,494.639,507.979,498.661,503.017,498.661z"/>
<path style="fill:#F2F2F2;" d="M324.813,187.925c0.835-4.512,1.236-9.176,1.158-13.947c-0.622-37.921-31.753-68.656-69.68-68.811
	c-38.783-0.158-70.271,31.233-70.271,69.979c0,4.372,0.402,8.649,1.171,12.798c0.756,4.082-0.77,8.21-3.839,11.007
	c-5.857,5.337-9.426,13.14-9.062,21.77c0.601,14.255,12.111,25.862,26.361,26.58c1.042,0.053,2.071,0.048,3.087-0.012
	c3.314-0.194,6.106,2.437,6.106,5.756v7.206c0,0.705,0.412,1.35,1.055,1.638c28.691,12.854,61.51,12.854,90.201,0
	c0.643-0.289,1.055-0.933,1.055-1.638v-7.206c0-3.319,2.793-5.951,6.106-5.756c1.016,0.06,2.046,0.065,3.088,0.012
	c14.249-0.717,25.759-12.326,26.359-26.581c0.363-8.628-3.206-16.432-9.063-21.769C325.574,196.149,324.057,192.014,324.813,187.925
	z"/>
<path style="fill:#E6E6E6;" d="M234.869,261.887c-0.643-0.289-1.055-0.933-1.055-1.638v-7.206c0-3.319-2.793-5.951-6.107-5.756
	c-1.014,0.06-2.045,0.065-3.087,0.012c-14.249-0.717-25.759-12.325-26.361-26.58c-0.364-8.628,3.205-16.433,9.062-21.77
	c3.069-2.795,4.594-6.924,3.839-11.007c-0.769-4.149-1.171-8.426-1.171-12.798c0-34.552,25.048-63.234,57.971-68.931
	c-3.799-0.661-7.693-1.032-11.668-1.048c-38.783-0.158-70.271,31.233-70.271,69.979c0,4.372,0.402,8.649,1.171,12.798
	c0.756,4.082-0.77,8.21-3.839,11.007c-5.857,5.337-9.426,13.14-9.062,21.77c0.601,14.255,12.111,25.862,26.361,26.58
	c1.042,0.053,2.071,0.047,3.087-0.012c3.314-0.194,6.106,2.437,6.106,5.756v7.206c0,0.705,0.412,1.35,1.055,1.638
	c18.078,8.099,37.795,11.091,57.086,8.983C256.661,269.634,245.482,266.642,234.869,261.887z"/>
<g>
	<path style="fill:#4D4D4D;" d="M223.654,212.905c-1.476,0-2.972-0.364-4.354-1.132c-4.337-2.41-5.9-7.879-3.49-12.214l5.989-10.779
		c2.41-4.337,7.88-5.899,12.214-3.49c4.337,2.41,5.9,7.879,3.49,12.214l-5.989,10.779
		C229.872,211.238,226.81,212.905,223.654,212.905z"/>
	<path style="fill:#4D4D4D;" d="M288.347,212.905c-3.157,0-6.219-1.667-7.861-4.622l-5.989-10.779
		c-2.41-4.337-0.847-9.806,3.49-12.214c4.336-2.41,9.806-0.847,12.214,3.49l5.989,10.779c2.41,4.337,0.847,9.806-3.49,12.214
		C291.32,212.541,289.823,212.905,288.347,212.905z"/>
	<path style="fill:#4D4D4D;" d="M256.001,234.462c-4.961,0-8.983-4.022-8.983-8.983V214.7c0-4.961,4.022-8.983,8.983-8.983
		c4.961,0,8.983,4.022,8.983,8.983v10.779C264.984,230.44,260.962,234.462,256.001,234.462z"/>
</g>
<g>
</g>
<g>
</g>
<g>
</g>
<g>
</g>
<g>
</g>
<g>
</g>
<g>
</g>
<g>
</g>
<g>
</g>
<g>
</g>
<g>
</g>
<g>
</g>
<g>
</g>
<g>
</g>
<g>
</g>
</svg>
