<?xml version="1.0" encoding="iso-8859-1"?>
<!-- Generator: Adobe Illustrator 19.0.0, SVG Export Plug-In . SVG Version: 6.00 Build 0)  -->
<svg version="1.1" id="Capa_1" xmlns="http://www.w3.org/2000/svg" xmlns:xlink="http://www.w3.org/1999/xlink" x="0px" y="0px"
	 viewBox="0 0 512 512" style="enable-background:new 0 0 512 512;" xml:space="preserve">
<path style="fill:#B5E489;" d="M324.837,153.496c-30.45,0-58.069,12.347-78.119,32.295c-16.966-36.531-45.675-67.197-82.892-86.591
	c-12.245-6.38-27.343-1.627-33.724,10.618c-6.38,12.244-1.627,27.343,10.618,33.723c45.213,23.561,73.3,69.837,73.3,120.771v174.311
	c0,13.807,11.193,25,25,25s25-11.193,25-25V264.312c0-33.534,27.282-60.816,60.816-60.816c13.807,0,25-11.193,25-25
	S338.644,153.496,324.837,153.496z"/>
<path style="opacity:0.1;enable-background:new    ;" d="M239.021,340.113c-8.446,0-16.797,0.663-25,1.931v96.58
	c0,13.807,11.193,25,25,25s25-11.193,25-25v-96.578C255.817,340.777,247.465,340.113,239.021,340.113z"/>
<path style="fill:#C27C59;" d="M365.303,415.983c-4.844-0.712-9.209-3.222-12.32-7.003c-27.056-32.886-68.053-53.867-113.963-53.867
	c-46.048,0-87.152,21.11-114.206,54.167c-2.954,3.61-7.043,6.168-11.648,6.917c-28.486,4.636-52.363,22.998-64.607,48.081
	c-8.654,17.728,4.717,38.366,24.444,38.366h333.779c19.795,0,33.097-20.737,24.382-38.51
	C418.71,438.734,394.319,420.25,365.303,415.983z"/>
<path style="fill:#54B88B;" d="M504.517,162.17c-23.58-20.294-69.104-52.442-121.969-53.655
	c-39.758-0.912-73.328,30.647-73.082,70.414c0.238,38.46,31.49,69.565,70.006,69.565c54.14,0,100.955-32.966,125.004-53.654
	C514.481,186.233,514.521,170.78,504.517,162.17z"/>
<path style="opacity:0.1;enable-background:new    ;" d="M370.289,109.291c-34.159,5.038-61.044,34.039-60.823,69.639
	c0.238,38.46,31.49,69.565,70.006,69.565c33.855,0,64.845-12.891,89.195-27.609C347.758,244.936,338.337,136.674,370.289,109.291z"
	/>
<path style="opacity:0.1;enable-background:new    ;" d="M449.988,185.996H348.602c-4.143,0-7.5-3.358-7.5-7.5s3.357-7.5,7.5-7.5
	h101.387c4.143,0,7.5,3.358,7.5,7.5S454.131,185.996,449.988,185.996z"/>
<path style="fill:#54B88B;" d="M0.751,38.118c8.094,30.039,27.673,82.218,70.712,112.938
	c32.369,23.104,77.873,15.875,100.024-17.153c21.423-31.942,13.062-75.235-18.792-96.886C107.919,6.583,50.67,7.53,19.151,11.122
	C6.037,12.616-2.683,25.373,0.751,38.118z"/>
<path style="opacity:0.1;enable-background:new    ;" d="M34.743,9.796c-5.676,0.323-10.922,0.793-15.592,1.325
	C6.037,12.616-2.683,25.373,0.751,38.118c8.094,30.039,27.673,82.218,70.712,112.938c30.495,21.767,72.64,16.6,95.942-11.687
	C81.63,161.467,26.14,54.684,34.743,9.796z"/>
<path style="opacity:0.1;enable-background:new    ;" d="M138.87,119.764c-1.451,0-2.918-0.42-4.209-1.298L50.81,61.471
	c-3.426-2.328-4.315-6.993-1.987-10.419c2.328-3.424,6.992-4.316,10.419-1.986l83.852,56.994c3.426,2.328,4.315,6.993,1.987,10.419
	C143.629,118.613,141.271,119.764,138.87,119.764z"/>
<path style="opacity:0.1;enable-background:new    ;" d="M183.356,428.878c-23.192-1.435-36.403-25.577-17.214-54.508
	c-15.838,9.024-29.851,20.886-41.327,34.909c-2.954,3.61-7.043,6.168-11.648,6.917c-28.486,4.636-52.363,22.998-64.607,48.081
	c-8.654,17.728,4.716,38.366,24.444,38.366h210.623C299.096,462.91,232.085,431.894,183.356,428.878z"/>
<g style="opacity:0.1;">
	<circle cx="120.19" cy="451.33" r="7.081"/>
	<circle cx="181.43" cy="399.87" r="7.081"/>
	<circle cx="253.18" cy="474.78" r="7.081"/>
	<circle cx="228.39" cy="426.88" r="7.081"/>
	<circle cx="302.38" cy="406.95" r="7.081"/>
	<circle cx="376.48" cy="467.7" r="7.081"/>
</g>
<g>
</g>
<g>
</g>
<g>
</g>
<g>
</g>
<g>
</g>
<g>
</g>
<g>
</g>
<g>
</g>
<g>
</g>
<g>
</g>
<g>
</g>
<g>
</g>
<g>
</g>
<g>
</g>
<g>
</g>
</svg>
