<?xml version="1.0" encoding="iso-8859-1"?>
<!-- Generator: Adobe Illustrator 19.0.0, SVG Export Plug-In . SVG Version: 6.00 Build 0)  -->
<svg version="1.1" id="Capa_1" xmlns="http://www.w3.org/2000/svg" xmlns:xlink="http://www.w3.org/1999/xlink" x="0px" y="0px"
	 viewBox="0 0 512 512" style="enable-background:new 0 0 512 512;" xml:space="preserve">
<g>
	<path style="fill:#D77458;" d="M330.229,6.899c-10.787,13.021-27.081,36.757-28.292,62.489
		c-1.042,22.145,16.233,41.226,38.399,40.865c20.61-0.336,37.214-17.147,37.214-37.837c0-26.873-17.135-51.959-28.345-65.495
		C344.275,0.97,335.159,0.948,330.229,6.899z"/>
	<path style="fill:#D77458;" d="M471.979,179.286c-9.123,11.013-22.903,31.087-23.928,52.85
		c-0.882,18.729,13.729,34.867,32.476,34.561c17.43-0.284,31.473-14.502,31.473-32c0-22.727-14.492-43.943-23.972-55.391
		C483.859,174.272,476.149,174.253,471.979,179.286z"/>
	<path style="fill:#D77458;" d="M28.216,227.55c-9.123,11.013-22.903,31.087-23.928,52.85
		c-0.882,18.729,13.729,34.867,32.475,34.561c17.43-0.284,31.473-14.502,31.473-32c0-22.727-14.492-43.943-23.972-55.391
		C40.096,222.536,32.386,222.517,28.216,227.55z"/>
</g>
<path style="fill:#A67875;" d="M404.734,504.712c41.473,15.095,87.33-6.289,102.425-47.761
	c15.095-41.473-6.289-87.33-47.761-102.425l-220.649-80.31l-54.663,150.186L404.734,504.712z"/>
<path style="opacity:0.1;enable-background:new    ;" d="M420.234,474.796L206.107,396.86c-2.087,1.737-4.521,2.98-7.196,3.464
	c-2.094,0.379-4.208,0.603-6.3,0.651l-8.527,23.427l220.649,80.31c41.473,15.095,87.33-6.289,102.425-47.762
	c0.76-2.089,1.403-4.191,1.981-6.298C488.199,475.957,452.865,486.672,420.234,474.796z"/>
<circle style="fill:#FDBA6D;" cx="211.42" cy="349.31" r="79.912"/>
<g style="opacity:0.1;">
	<path d="M420.214,482.421c-0.852,0-1.718-0.147-2.565-0.454l-22.091-8.041c-6.844-2.491-13.109-6.603-18.116-11.893l-4.552-4.808
		c-3.414-3.605-7.687-6.41-12.354-8.109l-34.34-12.499c-3.893-1.417-5.899-5.721-4.483-9.613s5.721-5.895,9.613-4.482l34.341,12.499
		c6.844,2.492,13.108,6.604,18.116,11.892l4.552,4.809c3.414,3.606,7.686,6.411,12.354,8.109l22.092,8.041
		c3.892,1.417,5.899,5.721,4.482,9.613C426.153,480.529,423.277,482.421,420.214,482.421z"/>
	<path d="M464.58,440.065c-0.852,0-1.718-0.146-2.564-0.454l-43.139-15.701c-3.893-1.417-5.9-5.721-4.483-9.613
		c1.416-3.892,5.722-5.9,9.613-4.482l43.139,15.701c3.893,1.417,5.899,5.721,4.483,9.613
		C470.52,438.174,467.643,440.065,464.58,440.065z"/>
	<path d="M390.419,372.06c-0.852,0-1.718-0.146-2.565-0.454l-67.637-24.618c-3.892-1.417-5.899-5.721-4.482-9.613
		c1.417-3.893,5.72-5.897,9.613-4.482l67.637,24.618c3.892,1.417,5.899,5.721,4.482,9.613
		C396.359,370.169,393.482,372.06,390.419,372.06z"/>
</g>
<g style="opacity:0.1;">
	<path d="M257.142,358.97c-0.12,0-0.241-0.003-0.362-0.009c-4.137-0.196-7.332-3.71-7.135-7.848
		c0.536-11.267-3.903-22.143-12.178-29.841c-3.033-2.82-3.205-7.566-0.384-10.6c2.822-3.033,7.567-3.204,10.6-0.383
		c11.515,10.71,17.692,25.85,16.946,41.536C264.436,355.842,261.12,358.97,257.142,358.97z"/>
	<path d="M174.821,384.279c-2.282,0-4.535-1.037-6.009-3.004c-10.833-14.462-13.615-33.222-7.442-50.182
		c4.03-11.071,11.392-20.275,21.29-26.615c3.487-2.236,8.126-1.22,10.361,2.271c2.234,3.487,1.218,8.126-2.27,10.36
		c-7.105,4.551-12.391,11.161-15.286,19.115c-4.435,12.184-2.434,25.664,5.352,36.059c2.483,3.314,1.809,8.016-1.506,10.499
		C177.963,383.792,176.386,384.279,174.821,384.279z"/>
	<path d="M211.405,402.579c-0.207,0-0.412-0.001-0.619-0.004c-4.142-0.049-7.46-3.445-7.411-7.588
		c0.049-4.111,3.397-7.411,7.498-7.411c0.179,0,0.356,0.003,0.534,0.003c6.248,0,12.469-1.558,18.019-4.516
		c3.656-1.946,8.198-0.563,10.146,3.092s0.564,8.198-3.091,10.146C228.764,400.414,220.106,402.579,211.405,402.579z"/>
</g>
<path style="fill:#D77458;" d="M215.107,24.73c13.93-5.865,28.705,6.74,25.303,21.467c-2.31,9.997-3.543,20.501-3.543,31.339
	c0,67.191,47.182,121.66,105.384,121.66c17.109,0,33.257-4.717,47.537-13.078c11.82-6.92,26.957-0.183,29.674,13.241
	c2.908,14.368,4.448,28.431,4.448,41.688c0,92.734-75.176,167.91-167.91,167.91S88.09,333.781,88.09,241.047
	C88.09,162.418,142.137,55.451,215.107,24.73z"/>
<path style="opacity:0.2;fill:#FFFFFF;enable-background:new    ;" d="M197.867,159.553c-4.464-8.604-16.761-8.588-21.329-0.039
	c-41.843,78.307-43.902,169.181,14.605,207.591c63.75,41.852,146.275,12.227,147.114-51.323
	C339.488,222.509,245.627,251.612,197.867,159.553z"/>
<g>
	<path style="fill:#445258;" d="M195.02,266.462c-4.142,0-7.5-3.357-7.5-7.5v-10.123c0-4.143,3.358-7.5,7.5-7.5s7.5,3.357,7.5,7.5
		v10.123C202.52,263.104,199.162,266.462,195.02,266.462z"/>
	<path style="fill:#445258;" d="M316.978,266.462c-4.142,0-7.5-3.357-7.5-7.5v-10.123c0-4.143,3.358-7.5,7.5-7.5s7.5,3.357,7.5,7.5
		v10.123C324.478,263.104,321.121,266.462,316.978,266.462z"/>
	<path style="fill:#445258;" d="M255.999,274.234c-8.329,0-16.249-3.607-21.731-9.896c-2.722-3.123-2.396-7.86,0.726-10.582
		c3.122-2.721,7.86-2.396,10.582,0.727c2.632,3.02,6.431,4.752,10.423,4.752s7.791-1.732,10.423-4.752
		c2.72-3.123,7.459-3.448,10.581-0.727c3.123,2.722,3.448,7.459,0.726,10.582C272.248,270.627,264.328,274.234,255.999,274.234z"/>
</g>
<path style="fill:#A67875;" d="M79.912,509.553C35.778,509.553,0,473.775,0,429.641s35.778-79.912,79.912-79.912h234.81v159.825
	H79.912V509.553z"/>
<path style="opacity:0.1;enable-background:new    ;" d="M79.912,484.551c-39.881,0-72.931-29.216-78.932-67.411
	C0.34,421.214,0,425.387,0,429.641c0,44.134,35.778,79.912,79.912,79.912h234.81v-25.002L79.912,484.551L79.912,484.551z"/>
<circle style="fill:#FDBA6D;" cx="314.72" cy="429.64" r="79.912"/>
<path style="opacity:0.1;enable-background:new    ;" d="M364.445,367.105c13.148,14.243,21.189,33.27,21.189,54.182
	c0,44.134-35.778,79.912-79.912,79.912c-18.802,0-36.074-6.51-49.723-17.377c14.601,15.816,35.5,25.73,58.723,25.73
	c44.134,0,79.912-35.778,79.912-79.912C394.635,404.308,382.834,381.746,364.445,367.105z"/>
<g style="opacity:0.1;">
	<path d="M99.064,483.762H75.556c-4.142,0-7.5-3.357-7.5-7.5s3.358-7.5,7.5-7.5h23.509c4.967,0,9.94-1.174,14.384-3.396l5.92-2.96
		c6.515-3.258,13.808-4.979,21.092-4.979h36.545c4.142,0,7.5,3.357,7.5,7.5c0,4.142-3.358,7.5-7.5,7.5H140.46
		c-4.967,0-9.94,1.174-14.383,3.396l-5.921,2.961C113.64,482.04,106.347,483.762,99.064,483.762z"/>
	<path d="M94.259,428.787H48.352c-4.142,0-7.5-3.357-7.5-7.5s3.358-7.5,7.5-7.5h45.907c4.142,0,7.5,3.357,7.5,7.5
		S98.401,428.787,94.259,428.787z"/>
	<path d="M213.277,390.248h-71.978c-4.142,0-7.5-3.357-7.5-7.5c0-4.142,3.358-7.5,7.5-7.5h71.978c4.142,0,7.5,3.358,7.5,7.5
		C220.777,386.891,217.419,390.248,213.277,390.248z"/>
</g>
<g style="opacity:0.1;">
	<path d="M271.024,423.535c-0.738,0-1.488-0.109-2.23-0.341c-3.955-1.229-6.164-5.434-4.934-9.389
		c4.664-14.995,15.646-27.108,30.129-33.234c3.815-1.615,8.215,0.17,9.829,3.985c1.613,3.816-0.171,8.216-3.986,9.829
		c-10.409,4.402-18.299,13.105-21.649,23.875C277.184,421.475,274.221,423.535,271.024,423.535z"/>
	<path d="M339.727,475.474c-2.447,0-4.846-1.196-6.285-3.398c-2.266-3.468-1.292-8.115,2.176-10.381
		c10.871-7.104,17.362-19.087,17.362-32.054c0-8.465-2.706-16.483-7.826-23.19c-2.514-3.292-1.882-7.999,1.41-10.512
		c3.293-2.515,8-1.881,10.513,1.41c7.133,9.344,10.903,20.51,10.903,32.292c0,18.049-9.03,34.726-24.157,44.61
		C342.558,475.078,341.135,475.474,339.727,475.474z"/>
	<path d="M299.579,480.335c-0.823,0-1.661-0.137-2.481-0.425c-8.41-2.948-16.018-8.026-22-14.685
		c-2.768-3.081-2.515-7.823,0.567-10.592c3.081-2.768,7.823-2.516,10.591,0.566c4.302,4.789,9.767,8.439,15.805,10.556
		c3.909,1.37,5.967,5.649,4.596,9.559C305.574,478.402,302.675,480.335,299.579,480.335z"/>
</g>
<g>
</g>
<g>
</g>
<g>
</g>
<g>
</g>
<g>
</g>
<g>
</g>
<g>
</g>
<g>
</g>
<g>
</g>
<g>
</g>
<g>
</g>
<g>
</g>
<g>
</g>
<g>
</g>
<g>
</g>
</svg>
