<?xml version="1.0" encoding="iso-8859-1"?>
<!-- Generator: Adobe Illustrator 19.0.0, SVG Export Plug-In . SVG Version: 6.00 Build 0)  -->
<svg version="1.1" id="Layer_1" xmlns="http://www.w3.org/2000/svg" xmlns:xlink="http://www.w3.org/1999/xlink" x="0px" y="0px"
	 viewBox="0 0 512 512" style="enable-background:new 0 0 512 512;" xml:space="preserve">
<path style="fill:#368CD6;" d="M0,170.667h170.667V0H0V170.667z"/>
<path style="fill:#1767A3;" d="M170.667,170.667h170.667V0H170.667V170.667z"/>
<path style="fill:#368CD6;" d="M341.333,170.667H512V0H341.333V170.667z"/>
<path style="fill:#1767A3;" d="M0,341.333h170.667V170.667H0V341.333z"/>
<path style="fill:#368CD6;" d="M170.667,341.333h170.667V170.667H170.667V341.333z"/>
<path style="fill:#1767A3;" d="M341.333,341.333H512V170.667H341.333V341.333z"/>
<path style="fill:#368CD6;" d="M0,512h170.667V341.333H0V512z"/>
<path style="fill:#1767A3;" d="M170.667,512h170.667V341.333H170.667V512z"/>
<path style="fill:#368CD6;" d="M341.333,512H512V341.333H341.333V512z"/>
<g>
	<path style="fill:#1767A3;" d="M28.444,56.889c-2.844,0-4.741-0.948-6.637-2.844c-3.793-3.793-3.793-9.481,0-13.274L40.77,21.807
		c3.793-3.793,9.481-3.793,13.274,0c3.793,3.793,3.793,9.481,0,13.274L35.081,54.044C33.185,55.941,31.289,56.889,28.444,56.889"/>
	<path style="fill:#1767A3;" d="M28.444,104.296c-2.844,0-4.741-0.948-6.637-2.844c-3.793-3.793-3.793-9.481,0-13.274L40.77,69.215
		c3.793-3.793,9.481-3.793,13.274,0c3.793,3.793,3.793,9.481,0,13.274l-18.963,18.963C33.185,103.348,31.289,104.296,28.444,104.296
		"/>
	<path style="fill:#1767A3;" d="M75.852,56.889c-2.844,0-4.741-0.948-6.637-2.844c-3.793-3.793-3.793-9.481,0-13.274l18.963-18.963
		c3.793-3.793,9.481-3.793,13.274,0s3.793,9.481,0,13.274L82.489,54.044C80.593,55.941,78.696,56.889,75.852,56.889"/>
</g>
<g>
	<path style="fill:#368CD6;" d="M199.111,56.889c-2.844,0-4.741-0.948-6.637-2.844c-3.793-3.793-3.793-9.481,0-13.274l18.963-18.963
		c3.793-3.793,9.481-3.793,13.274,0s3.793,9.481,0,13.274l-18.963,18.963C203.852,55.941,201.956,56.889,199.111,56.889"/>
	<path style="fill:#368CD6;" d="M199.111,104.296c-2.844,0-4.741-0.948-6.637-2.844c-3.793-3.793-3.793-9.481,0-13.274
		l18.963-18.963c3.793-3.793,9.481-3.793,13.274,0c3.793,3.793,3.793,9.481,0,13.274l-18.963,18.963
		C203.852,103.348,201.956,104.296,199.111,104.296"/>
	<path style="fill:#368CD6;" d="M246.519,56.889c-2.844,0-4.741-0.948-6.637-2.844c-3.793-3.793-3.793-9.481,0-13.274l18.963-18.963
		c3.793-3.793,9.481-3.793,13.274,0c3.793,3.793,3.793,9.481,0,13.274l-18.963,18.963C251.259,55.941,249.363,56.889,246.519,56.889
		"/>
</g>
<g>
	<path style="fill:#1767A3;" d="M369.778,56.889c-2.844,0-4.741-0.948-6.637-2.844c-3.793-3.793-3.793-9.481,0-13.274l18.963-18.963
		c3.793-3.793,9.481-3.793,13.274,0c3.793,3.793,3.793,9.481,0,13.274l-18.963,18.963C374.519,55.941,372.622,56.889,369.778,56.889
		"/>
	<path style="fill:#1767A3;" d="M369.778,104.296c-2.844,0-4.741-0.948-6.637-2.844c-3.793-3.793-3.793-9.481,0-13.274
		l18.963-18.963c3.793-3.793,9.481-3.793,13.274,0c3.793,3.793,3.793,9.481,0,13.274l-18.963,18.963
		C374.519,103.348,372.622,104.296,369.778,104.296"/>
	<path style="fill:#1767A3;" d="M417.185,56.889c-2.844,0-4.741-0.948-6.637-2.844c-3.793-3.793-3.793-9.481,0-13.274l18.963-18.963
		c3.793-3.793,9.481-3.793,13.274,0s3.793,9.481,0,13.274l-18.963,18.963C421.926,55.941,420.03,56.889,417.185,56.889"/>
</g>
<g>
	<path style="fill:#368CD6;" d="M28.444,227.556c-2.844,0-4.741-0.948-6.637-2.844c-3.793-3.793-3.793-9.481,0-13.274l18.963-18.963
		c3.793-3.793,9.481-3.793,13.274,0c3.793,3.793,3.793,9.481,0,13.274l-18.963,18.963C33.185,226.607,31.289,227.556,28.444,227.556
		"/>
	<path style="fill:#368CD6;" d="M28.444,274.963c-2.844,0-4.741-0.948-6.637-2.844c-3.793-3.793-3.793-9.481,0-13.274l18.963-18.963
		c3.793-3.793,9.481-3.793,13.274,0c3.793,3.793,3.793,9.481,0,13.274l-18.963,18.963C33.185,274.015,31.289,274.963,28.444,274.963
		"/>
	<path style="fill:#368CD6;" d="M75.852,227.556c-2.844,0-4.741-0.948-6.637-2.844c-3.793-3.793-3.793-9.481,0-13.274l18.963-18.963
		c3.793-3.793,9.481-3.793,13.274,0s3.793,9.481,0,13.274l-18.963,18.963C80.593,226.607,78.696,227.556,75.852,227.556"/>
</g>
<g>
	<path style="fill:#1767A3;" d="M199.111,227.556c-2.844,0-4.741-0.948-6.637-2.844c-3.793-3.793-3.793-9.481,0-13.274
		l18.963-18.963c3.793-3.793,9.481-3.793,13.274,0s3.793,9.481,0,13.274l-18.963,18.963
		C203.852,226.607,201.956,227.556,199.111,227.556"/>
	<path style="fill:#1767A3;" d="M199.111,274.963c-2.844,0-4.741-0.948-6.637-2.844c-3.793-3.793-3.793-9.481,0-13.274
		l18.963-18.963c3.793-3.793,9.481-3.793,13.274,0c3.793,3.793,3.793,9.481,0,13.274l-18.963,18.963
		C203.852,274.015,201.956,274.963,199.111,274.963"/>
	<path style="fill:#1767A3;" d="M246.519,227.556c-2.844,0-4.741-0.948-6.637-2.844c-3.793-3.793-3.793-9.481,0-13.274
		l18.963-18.963c3.793-3.793,9.481-3.793,13.274,0c3.793,3.793,3.793,9.481,0,13.274l-18.963,18.963
		C251.259,226.607,249.363,227.556,246.519,227.556"/>
</g>
<g>
	<path style="fill:#368CD6;" d="M369.778,227.556c-2.844,0-4.741-0.948-6.637-2.844c-3.793-3.793-3.793-9.481,0-13.274
		l18.963-18.963c3.793-3.793,9.481-3.793,13.274,0c3.793,3.793,3.793,9.481,0,13.274l-18.963,18.963
		C374.519,226.607,372.622,227.556,369.778,227.556"/>
	<path style="fill:#368CD6;" d="M369.778,274.963c-2.844,0-4.741-0.948-6.637-2.844c-3.793-3.793-3.793-9.481,0-13.274
		l18.963-18.963c3.793-3.793,9.481-3.793,13.274,0c3.793,3.793,3.793,9.481,0,13.274l-18.963,18.963
		C374.519,274.015,372.622,274.963,369.778,274.963"/>
	<path style="fill:#368CD6;" d="M417.185,227.556c-2.844,0-4.741-0.948-6.637-2.844c-3.793-3.793-3.793-9.481,0-13.274
		l18.963-18.963c3.793-3.793,9.481-3.793,13.274,0s3.793,9.481,0,13.274l-18.963,18.963
		C421.926,226.607,420.03,227.556,417.185,227.556"/>
</g>
<g>
	<path style="fill:#1767A3;" d="M28.444,398.222c-2.844,0-4.741-0.948-6.637-2.844c-3.793-3.793-3.793-9.481,0-13.274l18.963-18.963
		c3.793-3.793,9.481-3.793,13.274,0c3.793,3.793,3.793,9.481,0,13.274l-18.963,18.963C33.185,397.274,31.289,398.222,28.444,398.222
		"/>
	<path style="fill:#1767A3;" d="M28.444,445.63c-2.844,0-4.741-0.948-6.637-2.844c-3.793-3.793-3.793-9.481,0-13.274l18.963-18.963
		c3.793-3.793,9.481-3.793,13.274,0c3.793,3.793,3.793,9.481,0,13.274l-18.963,18.963C33.185,444.681,31.289,445.63,28.444,445.63"
		/>
	<path style="fill:#1767A3;" d="M75.852,398.222c-2.844,0-4.741-0.948-6.637-2.844c-3.793-3.793-3.793-9.481,0-13.274l18.963-18.963
		c3.793-3.793,9.481-3.793,13.274,0c3.793,3.793,3.793,9.481,0,13.274l-18.963,18.963C80.593,397.274,78.696,398.222,75.852,398.222
		"/>
</g>
<g>
	<path style="fill:#368CD6;" d="M199.111,398.222c-2.844,0-4.741-0.948-6.637-2.844c-3.793-3.793-3.793-9.481,0-13.274
		l18.963-18.963c3.793-3.793,9.481-3.793,13.274,0c3.793,3.793,3.793,9.481,0,13.274l-18.963,18.963
		C203.852,397.274,201.956,398.222,199.111,398.222"/>
	<path style="fill:#368CD6;" d="M199.111,445.63c-2.844,0-4.741-0.948-6.637-2.844c-3.793-3.793-3.793-9.481,0-13.274l18.963-18.963
		c3.793-3.793,9.481-3.793,13.274,0c3.793,3.793,3.793,9.481,0,13.274l-18.963,18.963
		C203.852,444.681,201.956,445.63,199.111,445.63"/>
	<path style="fill:#368CD6;" d="M246.519,398.222c-2.844,0-4.741-0.948-6.637-2.844c-3.793-3.793-3.793-9.481,0-13.274
		l18.963-18.963c3.793-3.793,9.481-3.793,13.274,0c3.793,3.793,3.793,9.481,0,13.274l-18.963,18.963
		C251.259,397.274,249.363,398.222,246.519,398.222"/>
</g>
<g>
	<path style="fill:#1767A3;" d="M369.778,398.222c-2.844,0-4.741-0.948-6.637-2.844c-3.793-3.793-3.793-9.481,0-13.274
		l18.963-18.963c3.793-3.793,9.481-3.793,13.274,0c3.793,3.793,3.793,9.481,0,13.274l-18.963,18.963
		C374.519,397.274,372.622,398.222,369.778,398.222"/>
	<path style="fill:#1767A3;" d="M369.778,445.63c-2.844,0-4.741-0.948-6.637-2.844c-3.793-3.793-3.793-9.481,0-13.274l18.963-18.963
		c3.793-3.793,9.481-3.793,13.274,0c3.793,3.793,3.793,9.481,0,13.274l-18.963,18.963
		C374.519,444.681,372.622,445.63,369.778,445.63"/>
	<path style="fill:#1767A3;" d="M417.185,398.222c-2.844,0-4.741-0.948-6.637-2.844c-3.793-3.793-3.793-9.481,0-13.274
		l18.963-18.963c3.793-3.793,9.481-3.793,13.274,0c3.793,3.793,3.793,9.481,0,13.274l-18.963,18.963
		C421.926,397.274,420.03,398.222,417.185,398.222"/>
</g>
<g>
</g>
<g>
</g>
<g>
</g>
<g>
</g>
<g>
</g>
<g>
</g>
<g>
</g>
<g>
</g>
<g>
</g>
<g>
</g>
<g>
</g>
<g>
</g>
<g>
</g>
<g>
</g>
<g>
</g>
</svg>
