<?xml version="1.0" encoding="iso-8859-1"?>
<!-- Generator: Adobe Illustrator 19.0.0, SVG Export Plug-In . SVG Version: 6.00 Build 0)  -->
<svg version="1.1" id="Capa_1" xmlns="http://www.w3.org/2000/svg" xmlns:xlink="http://www.w3.org/1999/xlink" x="0px" y="0px"
	 viewBox="0 0 512 512" style="enable-background:new 0 0 512 512;" xml:space="preserve">
<g transform="matrix(1.25 0 0 -1.25 0 45)">
	<path id="SVGCleanerId_0" style="fill:#C6D5DB;" d="M102.4,24.622c-37.695,0-68.267-30.561-68.267-68.267v-45.511
		c0-37.695,30.572-68.267,68.267-68.267c37.706,0,68.267,30.572,68.267,68.267v45.511C170.667-5.939,140.106,24.622,102.4,24.622z
		 M136.533-89.156c0-18.853-15.291-34.133-34.133-34.133s-34.133,15.281-34.133,34.133v45.511c0,18.853,15.291,34.133,34.133,34.133
		s34.133-15.281,34.133-34.133V-89.156z"/>
	<g>
		<path id="SVGCleanerId_1" style="fill:#E1E8ED;" d="M108.089-134.667c21.993,0,39.822,17.829,39.822,39.822v56.889
			c0,10.847-4.343,20.677-11.378,27.859v-33.548v-45.511c0-13.356-7.669-24.901-18.832-30.51
			c-6.256-9.139-15.881-15.001-26.679-15.001c-18.842,0-34.133,17.829-34.133,39.822v56.889c0,21.993,15.291,39.822,34.133,39.822
			c3.99,0,7.818-0.807,11.378-2.276v13.654v11.378c-37.706,0-68.267-30.561-68.267-68.267v-45.511
			c0-37.706,30.561-68.267,68.267-68.267v23.166C104.259-134.522,106.156-134.667,108.089-134.667z"/>
		<path id="SVGCleanerId_2" style="fill:#C6D5DB;" d="M102.4-0.41c-3.56,1.469-7.388,2.276-11.378,2.276
			c-18.842,0-34.133-17.829-34.133-39.822v-56.889c0-21.993,15.291-39.822,34.133-39.822c10.798,0,20.423,5.862,26.679,15.001
			c-4.605-2.313-9.799-3.623-15.301-3.623c-18.842,0-34.133,15.269-34.133,34.133v45.511c0,18.853,15.291,34.133,34.133,34.133
			s34.133-15.281,34.133-34.133v33.548v23.341H102.4C102.4,13.244,102.4-0.41,102.4-0.41z"/>
	</g>
	<path style="fill:#C6D5DB;" d="M102.4-180.178c-37.695,0-68.267-30.561-68.267-68.267v-45.511
		c0-37.695,30.572-68.267,68.267-68.267c37.706,0,68.267,30.572,68.267,68.267v45.511
		C170.667-210.739,140.106-180.178,102.4-180.178z M136.533-293.956c0-18.853-15.291-34.133-34.133-34.133
		s-34.133,15.28-34.133,34.133v45.511c0,18.842,15.291,34.133,34.133,34.133s34.133-15.291,34.133-34.133V-293.956z"/>
	<g>
		<path style="fill:#E1E8ED;" d="M136.533-214.893v-33.552v-45.511c0-13.355-7.669-24.901-18.832-30.51
			c-6.256-9.139-15.881-15.001-26.679-15.001c-18.842,0-34.133,17.829-34.133,39.822v56.889c0,22.004,15.291,39.822,34.133,39.822
			c3.99,0,7.818-0.806,11.378-2.276v13.653v11.378c-37.706,0-68.267-30.561-68.267-68.267v-45.511
			c0-37.706,30.561-68.267,68.267-68.267v23.166c1.859-0.266,3.756-0.411,5.689-0.411c21.993,0,39.822,17.829,39.822,39.822v56.889
			C147.911-231.902,143.568-222.073,136.533-214.893z"/>
		<path style="fill:#C6D5DB;" d="M91.022-202.933c-18.842,0-34.133-17.818-34.133-39.822v-56.889
			c0-21.993,15.291-39.822,34.133-39.822c10.798,0,20.423,5.862,26.679,15.001c-4.605-2.313-9.799-3.623-15.301-3.623
			c-18.842,0-34.133,15.269-34.133,34.133v45.511c0,18.853,15.291,34.133,34.133,34.133s34.133-15.281,34.133-34.133v33.552v23.337
			H102.4v-13.653C98.84-203.74,95.012-202.933,91.022-202.933z"/>
	</g>
	<g>
		<path id="SVGCleanerId_0_1_" style="fill:#C6D5DB;" d="M102.4,24.622c-37.695,0-68.267-30.561-68.267-68.267v-45.511
			c0-37.695,30.572-68.267,68.267-68.267c37.706,0,68.267,30.572,68.267,68.267v45.511C170.667-5.939,140.106,24.622,102.4,24.622z
			 M136.533-89.156c0-18.853-15.291-34.133-34.133-34.133s-34.133,15.281-34.133,34.133v45.511
			c0,18.853,15.291,34.133,34.133,34.133s34.133-15.281,34.133-34.133V-89.156z"/>
	</g>
	<g>
		<g>
			<path id="SVGCleanerId_1_1_" style="fill:#E1E8ED;" d="M108.089-134.667c21.993,0,39.822,17.829,39.822,39.822v56.889
				c0,10.847-4.343,20.677-11.378,27.859v-33.548v-45.511c0-13.356-7.669-24.901-18.832-30.51
				c-6.256-9.139-15.881-15.001-26.679-15.001c-18.842,0-34.133,17.829-34.133,39.822v56.889c0,21.993,15.291,39.822,34.133,39.822
				c3.99,0,7.818-0.807,11.378-2.276v13.654v11.378c-37.706,0-68.267-30.561-68.267-68.267v-45.511
				c0-37.706,30.561-68.267,68.267-68.267v23.166C104.259-134.522,106.156-134.667,108.089-134.667z"/>
		</g>
		<g>
			<path id="SVGCleanerId_2_1_" style="fill:#C6D5DB;" d="M102.4-0.41c-3.56,1.469-7.388,2.276-11.378,2.276
				c-18.842,0-34.133-17.829-34.133-39.822v-56.889c0-21.993,15.291-39.822,34.133-39.822c10.798,0,20.423,5.862,26.679,15.001
				c-4.605-2.313-9.799-3.623-15.301-3.623c-18.842,0-34.133,15.269-34.133,34.133v45.511c0,18.853,15.291,34.133,34.133,34.133
				s34.133-15.281,34.133-34.133v33.548v23.341H102.4C102.4,13.244,102.4-0.41,102.4-0.41z"/>
		</g>
	</g>
	<path style="fill:#C6D5DB;" d="M102.4-282.578c-12.561,0-22.756-10.195-22.756-22.756V-373.6h45.511v68.267
		C125.156-292.773,114.972-282.578,102.4-282.578z"/>
	<path style="fill:#EDF1F4;" d="M102.4-282.578c-12.561,0-22.756-10.183-22.756-22.756V-373.6H102.4
		C102.4-373.6,102.4-282.578,102.4-282.578z"/>
	<path style="fill:#C6D5DB;" d="M102.4-55.022c12.572,0,22.756,10.195,22.756,22.756V36H79.644v-68.267
		C79.644-44.827,89.839-55.022,102.4-55.022z"/>
	<path style="fill:#EDF1F4;" d="M79.644,36v-68.267c0-12.572,10.195-22.756,22.756-22.756V36H79.644z"/>
	<path style="fill:#C6D5DB;" d="M307.2-77.778c-37.695,0-68.267-30.561-68.267-68.267v-45.511c0-37.706,30.572-68.267,68.267-68.267
		c37.706,0,68.267,30.561,68.267,68.267v45.511C375.467-108.339,344.906-77.778,307.2-77.778z M341.333-191.556
		c0-18.853-15.291-34.133-34.133-34.133s-34.133,15.281-34.133,34.133v45.511c0,18.853,15.291,34.133,34.133,34.133
		s34.133-15.281,34.133-34.133V-191.556z"/>
	<g>
		<path style="fill:#E1E8ED;" d="M312.889-237.067c21.993,0,39.822,17.829,39.822,39.822v56.889
			c0,10.847-4.343,20.677-11.378,27.859v-33.548v-45.511c0-13.356-7.669-24.901-18.832-30.51
			c-6.256-9.139-15.881-15.001-26.679-15.001c-18.842,0-34.133,17.829-34.133,39.822v56.889c0,21.993,15.291,39.822,34.133,39.822
			c3.99,0,7.818-0.807,11.378-2.276v13.654v11.378c-37.706,0-68.267-30.561-68.267-68.267v-45.511
			c0-37.706,30.561-68.267,68.267-68.267v23.166C309.059-236.922,310.956-237.067,312.889-237.067z"/>
		<path style="fill:#C6D5DB;" d="M307.2-102.81c-3.56,1.469-7.388,2.276-11.378,2.276c-18.842,0-34.133-17.829-34.133-39.822
			v-56.889c0-21.993,15.291-39.822,34.133-39.822c10.798,0,20.423,5.862,26.679,15.001c-4.605-2.313-9.799-3.623-15.301-3.623
			c-18.842,0-34.133,15.269-34.133,34.133v45.511c0,18.853,15.291,34.133,34.133,34.133s34.133-15.281,34.133-34.133v33.548v23.341
			H307.2L307.2-102.81L307.2-102.81z"/>
	</g>
	<path style="fill:#C6D5DB;" d="M307.2-55.022c37.706,0,68.267,30.572,68.267,68.267V36h-34.133V13.244
		c0-18.853-15.291-34.133-34.133-34.133s-34.133,15.281-34.133,34.133V36h-34.133V13.244C238.933-24.45,269.505-55.022,307.2-55.022
		z"/>
	<g>
		<path style="fill:#C6D5DB;" d="M295.822-32.267c3.99,0,7.818,0.807,11.378,2.276v9.101c-18.842,0-34.133,15.269-34.133,34.133V36
			h-11.378V7.556C261.689-14.438,276.98-32.267,295.822-32.267z"/>
		<path style="fill:#E1E8ED;" d="M312.889-32.267c21.993,0,39.822,17.829,39.822,39.822V36h-11.378V13.244
			c0-18.865-15.291-34.133-34.133-34.133v-9.101c-3.56-1.469-7.388-2.276-11.378-2.276c-18.842,0-34.133,17.829-34.133,39.822V36
			h-22.756V13.244c0-37.706,30.561-68.267,68.267-68.267v23.324C309.077-31.971,310.943-32.267,312.889-32.267z"/>
	</g>
	<path style="fill:#C6D5DB;" d="M307.2-282.578c-37.695,0-68.267-30.572-68.267-68.267V-373.6h34.133v22.756
		c0,18.853,15.291,34.133,34.133,34.133s34.133-15.281,34.133-34.133V-373.6h34.133v22.756
		C375.467-313.15,344.906-282.578,307.2-282.578z"/>
	<g>
		<path style="fill:#C6D5DB;" d="M295.822-305.333c-18.842,0-34.133-17.829-34.133-39.822V-373.6h11.378v22.756
			c0,18.865,15.291,34.133,34.133,34.133v9.101C303.64-306.141,299.812-305.333,295.822-305.333z"/>
		<path style="fill:#E1E8ED;" d="M352.711-373.6v28.444c0,21.993-17.829,39.822-39.822,39.822c-1.946,0-3.812-0.296-5.689-0.581
			v23.336c-37.706,0-68.267-30.561-68.267-68.267V-373.6h22.756v28.444c0,21.993,15.291,39.822,34.133,39.822
			c3.99,0,7.818-0.807,11.378-2.276v-9.101c18.842,0,34.133-15.269,34.133-34.133V-373.6H352.711z"/>
	</g>
	<path style="fill:#C6D5DB;" d="M307.2-180.178c-12.561,0-22.756-10.183-22.756-22.756v-136.533
		c0-12.561,10.195-22.756,22.756-22.756c12.572,0,22.756,10.195,22.756,22.756v136.533
		C329.956-190.361,319.772-180.178,307.2-180.178z"/>
	<path style="fill:#EDF1F4;" d="M284.444-202.933v-136.533c0-12.572,10.195-22.756,22.756-22.756v182.044
		C294.639-180.178,284.444-190.361,284.444-202.933z"/>
	<path style="fill:#C6D5DB;" d="M103.739-77.778c-12.561,0-22.756-10.183-22.756-22.756v-136.533
		c0-12.561,10.195-22.756,22.756-22.756c12.572,0,22.756,10.195,22.756,22.756v136.533
		C126.494-87.961,116.311-77.778,103.739-77.778z"/>
	<path style="fill:#EDF1F4;" d="M80.983-100.533v-136.533c0-12.572,10.039-22.756,22.756-22.756v182.044
		C91.022-77.778,80.983-87.961,80.983-100.533z"/>
	<path style="fill:#C6D5DB;" d="M307.2,24.622c-12.561,0-22.756-10.183-22.756-22.756v-136.533
		c0-12.561,10.195-22.756,22.756-22.756c12.572,0,22.756,10.195,22.756,22.756V1.867C329.956,14.439,319.772,24.622,307.2,24.622z"
		/>
	<path style="fill:#EDF1F4;" d="M284.444,1.867v-136.533c0-12.572,10.195-22.756,22.756-22.756V24.622
		C294.639,24.622,284.444,14.439,284.444,1.867z"/>
</g>
<g>
</g>
<g>
</g>
<g>
</g>
<g>
</g>
<g>
</g>
<g>
</g>
<g>
</g>
<g>
</g>
<g>
</g>
<g>
</g>
<g>
</g>
<g>
</g>
<g>
</g>
<g>
</g>
<g>
</g>
</svg>
