<?xml version="1.0" encoding="iso-8859-1"?>
<!-- Generator: Adobe Illustrator 19.0.0, SVG Export Plug-In . SVG Version: 6.00 Build 0)  -->
<svg version="1.1" id="Layer_1" xmlns="http://www.w3.org/2000/svg" xmlns:xlink="http://www.w3.org/1999/xlink" x="0px" y="0px"
	 viewBox="0 0 512 512" style="enable-background:new 0 0 512 512;" xml:space="preserve">
<path style="fill:#FF3F62;" d="M274.618,325.818c115.493,0,209.455-93.961,209.455-209.455c0-12.853-10.42-23.273-23.273-23.273
	h-64.512c2.583-7.284,4.003-15.115,4.003-23.273C400.291,31.32,368.97,0,330.473,0H51.2C38.347,0,27.927,10.42,27.927,23.273
	S38.347,46.545,51.2,46.545h279.273c12.833,0,23.273,10.44,23.273,23.273s-10.44,23.273-23.273,23.273h-93.091
	c-0.903,0-1.803,0.022-2.704,0.033c-54.93,0.69-106.471,22.388-145.391,61.305c-0.005,0.003-0.008,0.006-0.011,0.009
	c-39.561,39.561-61.348,92.158-61.348,148.108s21.788,108.547,61.348,148.108c0.003,0.003,0.006,0.006,0.011,0.009
	c38.92,38.917,90.461,60.615,145.391,61.305c0.901,0.011,1.801,0.033,2.704,0.033h37.236c64.163,0,116.364-52.201,116.364-116.364
	c0-12.853-10.42-23.273-23.273-23.273s-23.273,10.42-23.273,23.273c0,38.498-31.32,69.818-69.818,69.818h-13.964V325.818H274.618z"
	/>
<g>
	<path style="fill:#D8143A;" d="M139.802,172.054l28.863,28.863l45.444,45.444V141.276
		C187.065,145.119,161.645,155.65,139.802,172.054z"/>
	<path style="fill:#D8143A;" d="M129.716,227.792l-22.826-22.826c-16.404,21.842-26.934,47.262-30.777,74.307h105.086
		L129.716,227.792z"/>
	<path style="fill:#D8143A;" d="M76.113,325.818c3.845,27.044,14.375,52.464,30.779,74.307l22.826-22.826l51.479-51.481H76.113z"/>
	<path style="fill:#D8143A;" d="M139.802,433.037c21.842,16.404,47.262,26.934,74.307,30.777V358.73l-33.808,33.808L139.802,433.037
		z"/>
</g>
<path style="fill:#B8002B;" d="M89.287,154.428c-0.005,0.003-0.008,0.006-0.011,0.009c-39.561,39.561-61.348,92.158-61.348,148.108
	s21.788,108.547,61.348,148.108c0.003,0.003,0.006,0.006,0.011,0.009c38.92,38.917,90.461,60.615,145.391,61.305V93.123
	C179.748,93.815,128.206,115.513,89.287,154.428z M106.89,204.966l22.826,22.826l51.481,51.481H76.113
	C79.956,252.228,90.486,226.808,106.89,204.966z M106.89,400.125c-16.404-21.842-26.934-47.262-30.777-74.307h105.086
	l-51.481,51.481L106.89,400.125z M214.109,463.815c-27.044-3.845-52.464-14.373-74.307-30.777l40.499-40.499l33.808-33.808V463.815z
	 M168.665,200.917l-28.863-28.863c21.842-16.404,47.262-26.934,74.307-30.777V246.36L168.665,200.917z"/>
<g>
</g>
<g>
</g>
<g>
</g>
<g>
</g>
<g>
</g>
<g>
</g>
<g>
</g>
<g>
</g>
<g>
</g>
<g>
</g>
<g>
</g>
<g>
</g>
<g>
</g>
<g>
</g>
<g>
</g>
</svg>
