<?xml version="1.0" encoding="iso-8859-1"?>
<!-- Generator: Adobe Illustrator 19.0.0, SVG Export Plug-In . SVG Version: 6.00 Build 0)  -->
<svg version="1.1" id="Layer_1" xmlns="http://www.w3.org/2000/svg" xmlns:xlink="http://www.w3.org/1999/xlink" x="0px" y="0px"
	 viewBox="0 0 512 512" style="enable-background:new 0 0 512 512;" xml:space="preserve">
<path style="fill:#F3F3F3;" d="M301.333,251.733V65.067c0-35.2-28.8-65.067-65.067-65.067c-35.2,0-65.067,28.8-65.067,65.067V252.8
	c-43.733,23.467-73.6,69.333-73.6,121.6C98.667,450.133,160.533,512,237.333,512c75.733,0,137.6-61.867,137.6-137.6
	C374.933,321.067,345.067,275.2,301.333,251.733z"/>
<path style="fill:#F3705A;" d="M328,374.4c0,50.133-41.6,91.733-91.733,91.733s-91.733-41.6-91.733-91.733
	c0-41.6,28.8-77.867,67.2-88.533v-98.133h50.133v98.133C300.267,296.533,328,331.733,328,374.4z"/>
<ellipse transform="matrix(0.7071 -0.7071 0.7071 0.7071 -157.2939 292.9228)" style="fill:#FFFFFF;" cx="274.942" cy="336.332" rx="14.933" ry="30.933"/>
<g>
	<path style="fill:#F3F3F3;" d="M403.733,64h-57.6c-5.333,0-10.667-4.267-10.667-10.667l0,0c0-5.333,4.267-10.667,10.667-10.667
		h57.6c5.333,0,10.667,4.267,10.667,10.667l0,0C414.4,59.733,409.067,64,403.733,64z"/>
	<path style="fill:#F3F3F3;" d="M403.733,119.467h-57.6c-5.333,0-10.667-4.267-10.667-10.667l0,0
		c0-5.333,4.267-10.667,10.667-10.667h57.6c5.333,0,10.667,4.267,10.667,10.667l0,0C414.4,115.2,409.067,119.467,403.733,119.467z"
		/>
	<path style="fill:#F3F3F3;" d="M403.733,174.933h-57.6c-5.333,0-10.667-4.267-10.667-10.667l0,0
		c0-5.333,4.267-10.667,10.667-10.667h57.6c5.333,0,10.667,4.267,10.667,10.667l0,0C414.4,169.6,409.067,174.933,403.733,174.933z"
		/>
	<path style="fill:#F3F3F3;" d="M403.733,229.333h-57.6c-5.333,0-10.667-4.267-10.667-10.667l0,0
		c0-5.333,4.267-10.667,10.667-10.667h57.6c5.333,0,10.667,4.267,10.667,10.667l0,0C414.4,225.067,409.067,229.333,403.733,229.333z
		"/>
</g>
<g>
</g>
<g>
</g>
<g>
</g>
<g>
</g>
<g>
</g>
<g>
</g>
<g>
</g>
<g>
</g>
<g>
</g>
<g>
</g>
<g>
</g>
<g>
</g>
<g>
</g>
<g>
</g>
<g>
</g>
</svg>
