<?xml version="1.0" encoding="iso-8859-1"?>
<!-- Generator: Adobe Illustrator 19.0.0, SVG Export Plug-In . SVG Version: 6.00 Build 0)  -->
<svg version="1.1" id="Layer_1" xmlns="http://www.w3.org/2000/svg" xmlns:xlink="http://www.w3.org/1999/xlink" x="0px" y="0px"
	 viewBox="0 0 511.998 511.998" style="enable-background:new 0 0 511.998 511.998;" xml:space="preserve">
<rect x="370.941" y="122.778" transform="matrix(-0.3069 -0.9517 0.9517 -0.3069 270.5536 693.1119)" style="fill:#444444;" width="33.419" height="250.529"/>
<path style="fill:#B0B0B0;" d="M200.029,441.183H85.103C38.177,441.183,0,403.005,0,356.079V222.534h285.132v133.544
	C285.132,403.005,246.955,441.183,200.029,441.183z"/>
<path style="fill:#8B8B8B;" d="M200.029,441.183h-57.462c0-76.612,0-218.647,0-218.647h142.566v133.543
	C285.132,403.005,246.955,441.183,200.029,441.183z"/>
<path style="fill:#70C9D8;" d="M217.981,183.288h-33.42c0-4.673-0.892-6.135-3.275-10.037c-3.255-5.329-8.175-13.384-8.175-27.456
	s4.919-22.126,8.175-27.456c2.384-3.902,3.275-5.362,3.275-10.036c0-4.672-0.891-6.133-3.275-10.034
	c-3.255-5.329-8.175-13.383-8.175-27.455h33.42c0,4.671,0.891,6.131,3.274,10.033c3.255,5.329,8.175,13.384,8.175,27.456
	s-4.919,22.125-8.175,27.456c-2.383,3.902-3.275,5.363-3.275,10.037s0.892,6.135,3.275,10.037
	C213.063,161.161,217.981,169.215,217.981,183.288z"/>
<path style="fill:#9FD3DC;" d="M112.021,183.288h-33.42c0-4.673-0.892-6.135-3.275-10.037c-3.255-5.329-8.175-13.384-8.175-27.456
	s4.919-22.126,8.175-27.456c2.384-3.902,3.275-5.362,3.275-10.036c0-4.672-0.891-6.133-3.275-10.034
	c-3.255-5.329-8.175-13.383-8.175-27.455h33.42c0,4.671,0.891,6.131,3.274,10.033c3.255,5.329,8.175,13.384,8.175,27.456
	s-4.919,22.125-8.173,27.456c-2.384,3.902-3.275,5.363-3.275,10.037s0.892,6.135,3.275,10.037
	C107.101,161.161,112.021,169.215,112.021,183.288z"/>
<g>
</g>
<g>
</g>
<g>
</g>
<g>
</g>
<g>
</g>
<g>
</g>
<g>
</g>
<g>
</g>
<g>
</g>
<g>
</g>
<g>
</g>
<g>
</g>
<g>
</g>
<g>
</g>
<g>
</g>
</svg>
