<?xml version="1.0" encoding="iso-8859-1"?>
<!-- Generator: Adobe Illustrator 19.0.0, SVG Export Plug-In . SVG Version: 6.00 Build 0)  -->
<svg version="1.1" id="Capa_1" xmlns="http://www.w3.org/2000/svg" xmlns:xlink="http://www.w3.org/1999/xlink" x="0px" y="0px"
	 viewBox="0 0 512 512" style="enable-background:new 0 0 512 512;" xml:space="preserve">
<path style="fill:#80C7EA;" d="M273.815,106.904c0-52.899-42.883-95.782-95.782-95.782c-49.774,0-90.676,37.968-95.335,86.521
	c-6.902-2.744-14.42-4.27-22.3-4.27C27.041,93.374,0,120.414,0,153.771h261.577C269.367,139.916,273.815,123.931,273.815,106.904z"
	/>
<path style="fill:#2C9CCC;" d="M273.815,106.904c0-18.907-5.671-37.615-16.205-53.317c-0.969-1.445-1.979-2.863-3.026-4.254
	c-0.04-0.053-0.08-0.105-0.121-0.157c-0.781-1.031-1.579-2.048-2.399-3.047c-43.429,16.02-76.944,52.7-88.548,98.059
	c-0.702,3.441-1.177,6.636-1.487,9.583h99.546c2.434-4.33,4.542-8.867,6.29-13.58c2.097-5.655,3.677-11.562,4.678-17.662
	C273.381,117.444,273.815,112.225,273.815,106.904z"/>
<path style="fill:#BDDEF6;" d="M498.111,304.751C506.818,293.357,512,279.126,512,263.679c0-37.4-30.318-67.719-67.719-67.719
	c-12.984,0-25.111,3.66-35.416,9.997c2.097-8.526,3.217-17.436,3.217-26.609c0-61.323-49.711-111.034-111.034-111.034
	s-111.034,49.711-111.034,111.034c0,1.255,0.029,2.502,0.07,3.746c-9.593-5.209-20.585-8.168-32.268-8.168
	c-37.4,0-67.719,30.318-67.719,67.719c0,1.913,0.099,3.802,0.254,5.675c-4.99-1.384-10.242-2.139-15.673-2.139
	c-32.346,0-58.567,26.221-58.567,58.568h481.999V304.751z"/>
<g>
	<path style="fill:#85D0F4;" d="M166.352,337.315c-23.839,12.18-38.489,23.235-44.46,34.248
		c-12.163,22.438,20.971,42.354,35.079,21.084C163.896,382.205,166.783,364.082,166.352,337.315z"/>
	<path style="fill:#85D0F4;" d="M270.842,337.315c-23.839,12.18-38.489,23.235-44.46,34.248
		c-12.163,22.438,20.971,42.354,35.079,21.084C268.385,382.205,271.273,364.082,270.842,337.315z"/>
	<path style="fill:#85D0F4;" d="M375.331,337.315c-23.839,12.18-38.489,23.235-44.46,34.248
		c-12.163,22.438,20.971,42.354,35.079,21.084C372.875,382.205,375.763,364.082,375.331,337.315z"/>
	<path style="fill:#85D0F4;" d="M218.596,436.479c-23.839,12.18-38.489,23.235-44.46,34.248
		c-12.163,22.438,20.971,42.354,35.079,21.084C216.14,481.37,219.028,463.247,218.596,436.479z"/>
	<path style="fill:#85D0F4;" d="M323.086,436.479c-23.839,12.18-38.489,23.235-44.46,34.248
		c-12.163,22.438,20.971,42.354,35.079,21.084C320.63,481.37,323.518,463.247,323.086,436.479z"/>
</g>
<g>
</g>
<g>
</g>
<g>
</g>
<g>
</g>
<g>
</g>
<g>
</g>
<g>
</g>
<g>
</g>
<g>
</g>
<g>
</g>
<g>
</g>
<g>
</g>
<g>
</g>
<g>
</g>
<g>
</g>
</svg>
