<?xml version="1.0" encoding="iso-8859-1"?>
<!-- Generator: Adobe Illustrator 19.0.0, SVG Export Plug-In . SVG Version: 6.00 Build 0)  -->
<svg version="1.1" id="Capa_1" xmlns="http://www.w3.org/2000/svg" xmlns:xlink="http://www.w3.org/1999/xlink" x="0px" y="0px"
	 viewBox="0 0 512 512" style="enable-background:new 0 0 512 512;" xml:space="preserve">
<path id="SVGCleanerId_0" style="fill:#54B88B;" d="M222.621,499.46H59.849C26.795,499.46,0,472.665,0,439.611
	s26.795-59.849,59.849-59.849h162.772c41.596,0,75.436-33.84,75.436-75.436V181.543c0-33.053,26.795-59.849,59.849-59.849
	s59.849,26.795,59.849,59.849v122.784C417.756,411.924,330.219,499.46,222.621,499.46z"/>
<g>
	<path id="SVGCleanerId_0_1_" style="fill:#54B88B;" d="M222.621,499.46H59.849C26.795,499.46,0,472.665,0,439.611
		s26.795-59.849,59.849-59.849h162.772c41.596,0,75.436-33.84,75.436-75.436V181.543c0-33.053,26.795-59.849,59.849-59.849
		s59.849,26.795,59.849,59.849v122.784C417.756,411.924,330.219,499.46,222.621,499.46z"/>
</g>
<g>
	<rect x="77.12" y="379.765" style="fill:#B5E489;" width="90" height="119.7"/>
	<path style="fill:#B5E489;" d="M291.495,335.042c-11.74,26.221-38.008,44.567-68.513,44.711
		c25.023,21.584,56.943,64.646,63.18,109.077c40.75-14.073,75.422-41.287,98.932-76.555
		C370.32,374.289,324.063,345.816,291.495,335.042z"/>
</g>
<path style="opacity:0.2;enable-background:new    ;" d="M357.907,121.694c-33.054,0-59.849,26.795-59.849,59.849v122.784
	c0,9.456-1.765,18.502-4.956,26.85c20.067,7.909,41.928,12.254,64.805,12.254c20.177,0,39.56-3.388,57.623-9.612
	c1.465-9.62,2.227-19.469,2.227-29.492V181.543C417.756,148.489,390.961,121.694,357.907,121.694z"/>
<circle style="fill:#54B88B;" cx="357.91" cy="166.625" r="154.09"/>
<path style="opacity:0.1;enable-background:new    ;" d="M105.089,379.762h-45.24C26.795,379.762,0,406.558,0,439.611
	c0,33.053,26.795,59.849,59.849,59.849h121.25C112.449,479.865,90.55,415.232,105.089,379.762z"/>
<g>
	<path style="fill:#414B58;" d="M286.96,162.818c-4.143,0-7.5-3.358-7.5-7.5v-11.975c0-4.142,3.357-7.5,7.5-7.5s7.5,3.358,7.5,7.5
		v11.975C294.46,159.46,291.103,162.818,286.96,162.818z"/>
	<path style="fill:#414B58;" d="M357.907,184.694L357.907,184.694c-11.163,0-20.213-9.05-20.213-20.213v-14.695
		c0-3.047,2.47-5.518,5.518-5.518h29.39c3.047,0,5.518,2.47,5.518,5.518v14.695C378.12,175.644,369.07,184.694,357.907,184.694z"/>
	<path style="fill:#414B58;" d="M428.853,162.818c-4.143,0-7.5-3.358-7.5-7.5v-11.975c0-4.142,3.357-7.5,7.5-7.5s7.5,3.358,7.5,7.5
		v11.975C436.353,159.46,432.996,162.818,428.853,162.818z"/>
</g>
<path style="opacity:0.1;enable-background:new    ;" d="M334.175,14.349C260.339,25.763,203.813,89.59,203.813,166.623
	c0,85.103,68.99,154.093,154.093,154.093c16.655,0,32.688-2.653,47.712-7.541C208.878,234.937,265.79,68.629,334.175,14.349z"/>
<g>
</g>
<g>
</g>
<g>
</g>
<g>
</g>
<g>
</g>
<g>
</g>
<g>
</g>
<g>
</g>
<g>
</g>
<g>
</g>
<g>
</g>
<g>
</g>
<g>
</g>
<g>
</g>
<g>
</g>
</svg>
